<svg width="110" height="106" viewBox="42 -2 110 106" fill="none" xmlns="http://www.w3.org/2000/svg">
<path d="M126.136 0C134.126 0 140.558 5.42343 140.558 12.1611V60.8828C140.557 67.6203 134.126 73.043 126.136 73.043H68.2412C60.2509 73.043 53.8196 67.6203 53.8193 60.8828V12.1611C53.8193 5.42343 60.2508 0 68.2412 0H126.136ZM78.4062 18.2607C74.9371 18.2609 72.0801 20.3439 72.0801 22.873V47.6777C72.0804 50.2069 74.9372 54.7819 78.4062 54.7822H115.971C119.44 54.7822 122.297 50.207 122.297 47.6777V22.873C122.297 20.3438 119.44 18.2607 115.971 18.2607H78.4062Z" fill="black"/>
<path d="M141.144 87.8037H53.8193V101.739H141.144V87.8037Z" fill="black"/>
</svg>
